; NON-PLATED HOLES START AT T1
; THROUGH (PLATED) HOLES START AT T100
M48
INCH
T100C0.015748
T101C0.042000
T102C0.039370
T103C0.038000
T104C0.118000
T105C0.027559
T106C0.035433
T107C0.036000
T108C0.030000
T109C0.035000
T110C0.052583
%
T100
X000899Y038449
X026899Y000699
X001399Y001449
X026149Y037949
T101
X004899Y028449
X024899Y002699
X009149Y037449
X005899Y028449
X024899Y004699
X024899Y011199
X009149Y036449
X024899Y003699
X003399Y016699
X009149Y035449
X024899Y013199
X024899Y012199
X007399Y016699
X003899Y028449
X003399Y022699
X007399Y022699
T102
X024899Y021449
X024899Y025449
X024899Y022449
X005899Y004699
X024899Y028449
X006899Y004699
X004899Y004699
X024899Y024449
X006899Y005949
X007899Y004699
X007399Y025449
X003899Y004699
X024899Y027449
X002899Y004699
X004399Y005949
X024899Y023449
X024899Y026449
T103
X013899Y004699
X014649Y023449
X016649Y026449
X010899Y004699
X015649Y026449
X012899Y004699
X008899Y004699
X009899Y004699
X018649Y026449
X017649Y026449
X011899Y004699
X014649Y021449
X019649Y026449
X014649Y022449
X014649Y020449
T104
X005749Y034630
X003899Y033449
X003899Y035811
T105
X017899Y004699
X016899Y004699
T106
X003399Y015699
X006199Y015699
T107
X014899Y006949
X016899Y006949
X011899Y006949
X006899Y012949
X004899Y012949
X012899Y012949
X013899Y012949
X015899Y006949
X007899Y006949
X008899Y006949
X009899Y006949
X003899Y006949
X017899Y012949
X005899Y012949
X010899Y012949
X016899Y012949
X011899Y012949
X014899Y012949
X012899Y006949
X004899Y006949
X006899Y006949
X015899Y012949
X007899Y012949
X013899Y006949
X008899Y012949
X017899Y006949
X003899Y012949
X005899Y006949
X010899Y006949
X009899Y012949
T108
X008649Y030949
X002899Y030949
X015649Y035949
X013649Y037449
X004399Y014449
X006399Y014449
X011649Y037449
X004899Y030949
X013649Y035949
X006649Y030949
T109
X024899Y009449
X013399Y027199
X024899Y007449
X020899Y026449
X005399Y022699
X022899Y023449
X024899Y006449
X013399Y026199
X008149Y025449
X021899Y008449
X006899Y005949
X002899Y025449
X012149Y027199
X020899Y022699
X017149Y037449
X013399Y028199
X017149Y036449
X008649Y032949
X017899Y008199
X021899Y007449
X021899Y009449
X005399Y018699
X009149Y024449
X004899Y025449
X021899Y006449
X009149Y027199
X026399Y016699
X023399Y021449
X012149Y025449
X022899Y028449
X017899Y010949
X024899Y008449
X014399Y024449
X020399Y021449
X004399Y005949
X020399Y024449
X023399Y024449
X017149Y016699
X007649Y032949
T110
X013399Y030699
X013399Y033700
X013399Y032699
X024267Y031769
X013399Y031699
X024267Y032769
T00
M30
